<svg width="18" height="18" viewBox="0 0 18 18" fill="none" xmlns="http://www.w3.org/2000/svg">
<path d="M10.125 11.25C8.32031 11.25 6.71484 11.0918 5.30859 10.7754C3.90234 10.459 2.97656 10.0605 2.53125 9.58008C4.125 9.94336 5.90625 10.125 7.875 10.125C9.31641 10.125 10.6846 10.0254 11.9795 9.82617C13.2744 9.62695 14.3203 9.35156 15.1172 9C15.9141 8.64844 16.3125 8.27344 16.3125 7.875V6.75H16.875C17.2148 6.82031 17.4873 6.96387 17.6924 7.18066C17.8975 7.39746 18 7.62891 18 7.875V9C18 9.41016 17.6484 9.78809 16.9453 10.1338C16.2422 10.4795 15.2871 10.752 14.0801 10.9512C12.873 11.1504 11.5547 11.25 10.125 11.25ZM9 6.75C7.86328 6.75 6.82031 6.68848 5.87109 6.56543C4.92188 6.44238 4.16602 6.2959 3.60352 6.12598C3.04102 5.95605 2.56348 5.77441 2.1709 5.58105C1.77832 5.3877 1.50586 5.2207 1.35352 5.08008C1.20117 4.93945 1.125 4.83984 1.125 4.78125V4.0957C1.72266 4.54102 2.75391 4.90723 4.21875 5.19434C5.68359 5.48145 7.27734 5.625 9 5.625C10.7227 5.625 12.3164 5.48145 13.7812 5.19434C15.2461 4.90723 16.2773 4.54102 16.875 4.0957V4.5C16.875 4.89844 16.5234 5.27051 15.8203 5.61621C15.1172 5.96191 14.1621 6.2373 12.9551 6.44238C11.748 6.64746 10.4297 6.75 9 6.75ZM9 4.5C7.57031 4.5 6.25195 4.39746 5.04492 4.19238C3.83789 3.9873 2.88281 3.71191 2.17969 3.36621C1.47656 3.02051 1.125 2.64551 1.125 2.24121C1.125 1.83691 1.47656 1.46191 2.17969 1.11621C2.88281 0.770508 3.83789 0.498047 5.04492 0.298828C6.25195 0.0996094 7.57031 0 9 0C10.4297 0 11.748 0.0996094 12.9551 0.298828C14.1621 0.498047 15.1172 0.770508 15.8203 1.11621C16.5234 1.46191 16.875 1.83691 16.875 2.24121C16.875 2.64551 16.5234 3.02051 15.8203 3.36621C15.1172 3.71191 14.1621 3.9873 12.9551 4.19238C11.748 4.39746 10.4297 4.5 9 4.5ZM0.5625 5.625C0.5625 6.02344 0.960938 6.39844 1.75781 6.75C2.55469 7.10156 3.60059 7.37695 4.89551 7.57617C6.19043 7.77539 7.55859 7.875 9 7.875C10.3125 7.875 11.5664 7.79004 12.7617 7.62012C13.957 7.4502 14.9531 7.21875 15.75 6.92578C15.7383 6.94922 15.7178 6.9873 15.6885 7.04004C15.6592 7.09277 15.5684 7.18945 15.416 7.33008C15.2637 7.4707 15.0791 7.60547 14.8623 7.73438C14.6455 7.86328 14.3291 8.00977 13.9131 8.17383C13.4971 8.33789 13.0283 8.47559 12.5068 8.58691C11.9854 8.69824 11.3203 8.79492 10.5117 8.87695C9.70312 8.95898 8.82422 9 7.875 9C6.44531 9 5.12695 8.89746 3.91992 8.69238C2.71289 8.4873 1.75781 8.21191 1.05469 7.86621C0.351562 7.52051 0 7.14844 0 6.75V5.625C0 5.34375 0.1875 5.06836 0.5625 4.79883V5.625ZM0.5625 11.5488V12.375C0.5625 12.7734 0.960938 13.1484 1.75781 13.5C2.55469 13.8516 3.60059 14.127 4.89551 14.3262C6.19043 14.5254 7.55859 14.625 9 14.625C10.2891 14.625 11.5283 14.543 12.7178 14.3789C13.9072 14.2148 14.9062 13.9863 15.7148 13.6934C15.5391 14.2793 14.7012 14.7686 13.2012 15.1611C11.7012 15.5537 9.92578 15.75 7.875 15.75C6.44531 15.75 5.12695 15.6504 3.91992 15.4512C2.71289 15.252 1.75781 14.9795 1.05469 14.6338C0.351562 14.2881 0 13.9102 0 13.5V12.375C0 12.0938 0.1875 11.8184 0.5625 11.5488ZM10.125 12.375C11.4258 12.375 12.6709 12.29 13.8604 12.1201C15.0498 11.9502 16.043 11.7187 16.8398 11.4258C16.6758 12.0117 15.8438 12.5039 14.3438 12.9023C12.8437 13.3008 11.0625 13.5 9 13.5C7.57031 13.5 6.25195 13.4004 5.04492 13.2012C3.83789 13.002 2.88281 12.7295 2.17969 12.3838C1.47656 12.0381 1.125 11.6602 1.125 11.25V10.125C1.125 9.86719 1.29492 9.60352 1.63477 9.33398C1.81055 9.39258 1.96289 9.43945 2.0918 9.47461C1.86914 9.69727 1.75781 9.91406 1.75781 10.125C1.75781 10.5234 2.15039 10.8984 2.93555 11.25C3.7207 11.6016 4.75781 11.877 6.04688 12.0762C7.33594 12.2754 8.69531 12.375 10.125 12.375ZM16.3125 14.625V13.7988C16.6875 14.0684 16.875 14.3438 16.875 14.625V15.75C16.875 16.1602 16.5234 16.5381 15.8203 16.8838C15.1172 17.2295 14.1621 17.502 12.9551 17.7012C11.748 17.9004 10.4297 18 9 18C6.9375 18 5.15625 17.8008 3.65625 17.4023C2.15625 17.0039 1.32422 16.5117 1.16016 15.9258C1.95703 16.2187 2.9502 16.4502 4.13965 16.6201C5.3291 16.79 6.57422 16.875 7.875 16.875C9.31641 16.875 10.6846 16.7754 11.9795 16.5762C13.2744 16.377 14.3203 16.1016 15.1172 15.75C15.9141 15.3984 16.3125 15.0234 16.3125 14.625Z" fill="white"/>
</svg>
