<svg width="22" height="20" viewBox="0 0 22 20" fill="none" xmlns="http://www.w3.org/2000/svg">
<path d="M4.77884 18.5512C4.77884 14.7325 7.6365 11.6371 11.1611 11.6371C14.6857 11.6371 17.5434 14.7325 17.5434 18.5512" stroke="white" stroke-width="1.5" stroke-linecap="round"/>
<path d="M5.31067 16.9557C5.31067 17.4875 6.64031 18.0194 7.43809 17.4875C8.23588 16.9557 8.48053 15.6234 9.29959 15.8526C10.1186 16.0819 10.0974 17.7535 11.1611 18.5513C12.2248 19.349 14.0863 19.0831 14.8841 17.7535C15.6819 16.4238 14.8415 16.0648 15.4484 15.2022C15.8526 14.6272 16.3685 14.7682 16.4796 14.8283" stroke="white" stroke-width="1.5" stroke-linecap="round"/>
<path d="M10.6292 8.44598H11.693" stroke="white" stroke-width="1.5" stroke-linecap="round" stroke-linejoin="round"/>
<path d="M15.4963 9.22781L16.3983 9.79158" stroke="white" stroke-width="1.5" stroke-linecap="round" stroke-linejoin="round"/>
<path d="M5.92285 9.79158L6.82541 9.22781" stroke="white" stroke-width="1.5" stroke-linecap="round" stroke-linejoin="round"/>
<path d="M19.1703 12.2402L19.7021 13.1614" stroke="white" stroke-width="1.5" stroke-linecap="round" stroke-linejoin="round"/>
<path d="M2.68277 13.1614L3.21463 12.2402" stroke="white" stroke-width="1.5" stroke-linecap="round" stroke-linejoin="round"/>
<path d="M20.6786 16.9589L20.7898 18.0168" stroke="white" stroke-width="1.5" stroke-linecap="round" stroke-linejoin="round"/>
<path d="M1 18.0167L1.11116 16.9583" stroke="white" stroke-width="1.5" stroke-linecap="round" stroke-linejoin="round"/>
<path d="M20.7345 2.59558L3.18326 6.85043" stroke="white" stroke-width="1.5" stroke-linecap="round"/>
<path d="M6.90626 1L13.8204 4.19113L7.43812 5.7867L4.77884 2.06371L6.90626 1Z" stroke="white" stroke-width="1.5" stroke-linecap="round" stroke-linejoin="round"/>
<path d="M3.18328 6.85038L1.58771 4.72296" stroke="white" stroke-width="1.5" stroke-linecap="round" stroke-linejoin="round"/>
</svg>
