<svg width="19" height="19" viewBox="0 0 19 19" fill="none" xmlns="http://www.w3.org/2000/svg">
<path d="M17.2727 6.04482C17.7308 6.04482 18.1702 6.22681 18.4941 6.55075C18.818 6.87469 19 7.31405 19 7.77218V11.2269C19 11.685 18.818 12.1244 18.4941 12.4483C18.1702 12.7723 17.7308 12.9542 17.2727 12.9542H16.3555C16.145 14.624 15.3324 16.1595 14.0701 17.2726C12.8079 18.3858 11.1829 19 9.5 19V17.2726C10.8743 17.2726 12.1923 16.7267 13.1641 15.7548C14.1359 14.783 14.6818 13.4649 14.6818 12.0906V6.9085C14.6818 5.53413 14.1359 4.21605 13.1641 3.24422C12.1923 2.27239 10.8743 1.72643 9.5 1.72643C8.1257 1.72643 6.80768 2.27239 5.8359 3.24422C4.86412 4.21605 4.31818 5.53413 4.31818 6.9085V12.9542H1.72727C1.26917 12.9542 0.829833 12.7723 0.505906 12.4483C0.18198 12.1244 0 11.685 0 11.2269V7.77218C0 7.31405 0.18198 6.87469 0.505906 6.55075C0.829833 6.22681 1.26917 6.04482 1.72727 6.04482H2.64445C2.85521 4.37524 3.66793 2.83994 4.93013 1.72701C6.19233 0.614078 7.81725 0 9.5 0C11.1827 0 12.8077 0.614078 14.0699 1.72701C15.3321 2.83994 16.1448 4.37524 16.3555 6.04482H17.2727ZM5.83818 12.7686L6.75364 11.3038C7.57675 11.8194 8.52873 12.0921 9.5 12.0906C10.4713 12.0921 11.4233 11.8194 12.2464 11.3038L13.1618 12.7686C12.0644 13.4562 10.7951 13.8199 9.5 13.8179C8.20494 13.8199 6.93564 13.4562 5.83818 12.7686Z" fill="white"/>
</svg>
