<svg width="19" height="19" viewBox="0 0 19 19" fill="none" xmlns="http://www.w3.org/2000/svg">
<path fill-rule="evenodd" clip-rule="evenodd" d="M0 9.5V19H3.5625V9.5H0ZM2.375 17.8125H1.16256V15.4126H2.375V17.8125ZM2.39994 14.25H1.16375V11.8501H2.39994V14.25Z" fill="#ffffff"/>
<path fill-rule="evenodd" clip-rule="evenodd" d="M10.6875 5.9375V3.5625H9.5V0H8.3125V3.5625H7.125V5.9375H4.75V19H13.0625V5.9375H10.6875ZM7.125 17.8125H5.9375V15.4375H7.125V17.8125ZM7.125 14.2999H5.9375V11.875H7.125V14.2999ZM7.125 10.7374H5.9375V8.3125H7.125V10.7374ZM9.5 17.8125H8.3125V15.4375H9.5V17.8125ZM9.5 14.2999H8.3125V11.875H9.5V14.2999ZM9.5 10.7374H8.3125V8.3125H9.5V10.7374ZM11.875 17.8125H10.6875V15.4375H11.875V17.8125ZM11.875 14.2999H10.6875V11.875H11.875V14.2999ZM11.875 10.7374H10.6875V8.3125H11.875V10.7374Z" fill="#ffffff"/>
<path fill-rule="evenodd" clip-rule="evenodd" d="M14.25 8.3125V19H19V13.0625L14.25 8.3125ZM16.6618 17.8861H15.4375V16.587H16.6618V17.8861ZM16.6618 15.5111H15.4375V14.212H16.6618V15.5111ZM16.6618 13.1361H15.4375V11.837H16.6618V13.1361Z" fill="#ffffff"/>
</svg>
