<svg width="17" height="17" viewBox="0 0 17 17" fill="none" xmlns="http://www.w3.org/2000/svg">
<path d="M7.27001 14.54C8.88302 14.5397 10.4495 13.9997 11.7202 13.006L15.715 17.0009L17 15.7159L13.0051 11.7211C13.9993 10.4503 14.5396 8.88344 14.54 7.27001C14.54 3.26151 11.2785 0 7.27001 0C3.26151 0 0 3.26151 0 7.27001C0 11.2785 3.26151 14.54 7.27001 14.54ZM7.27001 1.8175C10.2771 1.8175 12.7225 4.26295 12.7225 7.27001C12.7225 10.2771 10.2771 12.7225 7.27001 12.7225C4.26295 12.7225 1.8175 10.2771 1.8175 7.27001C1.8175 4.26295 4.26295 1.8175 7.27001 1.8175Z" fill="white"/>
<path d="M8.55316 5.98502C8.89758 6.33035 9.0875 6.78654 9.0875 7.27H10.905C10.9058 6.79238 10.8119 6.31934 10.6288 5.87823C10.4457 5.43712 10.177 5.03667 9.83813 4.70005C8.46228 3.32602 6.07681 3.32602 4.70187 4.70005L5.98503 5.98684C6.67568 5.29801 7.86614 5.29982 8.55316 5.98502Z" fill="white"/>
</svg>
